# xmcd
#
# Track frame offsets:
# 150
# 26386
# 68610
# 100219
# 131613
# 163508
# 204758
# 237720
# 267079
# 307250
#
# Disc length: 4475 seconds
#
# Revision: 0
# Processed by: cddbd v1.5.2PL0 Copyright (c) Steve Scherf et al.
# Submitted via: Audion 3.0.2 (http://www.panic.com/audion/)
#
DISCID=8311790a
DTITLE=mm - The ReCycle Session
DYEAR=1900
DGENRE=
TTITLE0=L´ankou
TTITLE1=Shortcuts in Mono
TTITLE2=What´s your number (Jazzanova renumber)
TTITLE3=Planetary Fusion
TTITLE4=The other Side (feat. Phluid)
TTITLE5=I say it
TTITLE6=What´s your number
TTITLE7=Sweat Band Remix by Propellerheads
TTITLE8=Caravelle, mood mix
TTITLE9=Suspicious
EXTD=
EXTT0=
EXTT1=
EXTT2=
EXTT3=
EXTT4=
EXTT5=
EXTT6=
EXTT7=
EXTT8=
EXTT9=
PLAYORDER=
